<?xml version="1.0" encoding="utf-8"?>
<!-- Generator: Adobe Illustrator 18.1.1, SVG Export Plug-In . SVG Version: 6.00 Build 0)  -->
<svg version="1.1" id="Layer_1" xmlns="http://www.w3.org/2000/svg" xmlns:xlink="http://www.w3.org/1999/xlink" x="0px" y="0px"
	 width="128px" height="54.9px" viewBox="0 0 128 54.9" enable-background="new 0 0 128 54.9" xml:space="preserve">
<path fill="#FFFFFF" d="M30.4,54.2L8.1,32.7C7.9,32.5,0,25.3,0,16.7C0,6.2,6.4,0,17.1,0C23.3,0,29.2,4.9,32,7.7
	C34.8,4.9,40.7,0,46.9,0C57.6,0,64,6.2,64,16.7c0,8.6-7.9,15.8-8.2,16.1L33.6,54.2c-0.4,0.4-1,0.6-1.6,0.6
	C31.4,54.9,30.9,54.6,30.4,54.2z"/>
<path fill="#FFB61E" d="M94.4,54.2L72.1,32.7c-0.3-0.2-8.1-7.4-8.1-16C64,6.2,70.4,0,81.1,0C87.3,0,93.2,4.9,96,7.7
	c2.8-2.8,8.7-7.7,14.9-7.7C121.6,0,128,6.2,128,16.7c0,8.6-7.9,15.8-8.2,16.1L97.6,54.2c-0.4,0.4-1,0.6-1.6,0.6
	C95.4,54.9,94.9,54.6,94.4,54.2z"/>
</svg>
