<?xml version="1.0" encoding="utf-8"?>
<!-- Generator: Adobe Illustrator 18.1.1, SVG Export Plug-In . SVG Version: 6.00 Build 0)  -->
<svg version="1.1" id="Layer_1" xmlns="http://www.w3.org/2000/svg" xmlns:xlink="http://www.w3.org/1999/xlink" x="0px" y="0px"
	 width="44px" height="22px" viewBox="-937 950 44 22" enable-background="new -937 950 44 22" xml:space="preserve">
<g>
	<path fill="#FFFFFF" d="M-915,954.6c0,0.5-0.4,0.9-0.9,0.9h-20.2c-0.5,0-0.9-0.4-0.9-0.9v-1.8c0-0.5,0.4-0.9,0.9-0.9h20.2
		c0.5,0,0.9,0.4,0.9,0.9C-915,952.8-915,954.6-915,954.6z M-915,962c0,0.5-0.4,0.9-0.9,0.9h-20.2c-0.5,0-0.9-0.4-0.9-0.9v-1.8
		c0-0.5,0.4-0.9,0.9-0.9h20.2c0.5,0,0.9,0.4,0.9,0.9C-915,960.1-915,962-915,962z M-915,969.2c0,0.5-0.4,0.9-0.9,0.9h-20.2
		c-0.5,0-0.9-0.4-0.9-0.9v-1.8c0-0.5,0.4-0.9,0.9-0.9h20.2c0.5,0,0.9,0.4,0.9,0.9V969.2z"/>
</g>
<path fill="#FFFFFF" d="M-894.8,953.8l-1.8-1.8l-7.3,7.3l-7.3-7.3l-1.8,1.8l7.3,7.3l-7.3,7.3l1.8,1.8l7.3-7.3l7.3,7.3l1.8-1.8
	l-7.3-7.3L-894.8,953.8z"/>
</svg>
