<?xml version="1.0" encoding="utf-8"?>
<!-- Generator: Adobe Illustrator 18.1.1, SVG Export Plug-In . SVG Version: 6.00 Build 0)  -->
<svg version="1.1" id="Layer_1" xmlns="http://www.w3.org/2000/svg" xmlns:xlink="http://www.w3.org/1999/xlink" x="0px" y="0px"
	 width="21.6px" height="18px" viewBox="0 0 21.6 18" enable-background="new 0 0 21.6 18" xml:space="preserve">
<g>
	<path fill="#FFFFFF" d="M21.6,2.7c0,0.5-0.4,0.9-0.9,0.9H0.9C0.4,3.6,0,3.2,0,2.7V0.9C0,0.4,0.4,0,0.9,0h19.8
		c0.5,0,0.9,0.4,0.9,0.9V2.7z M21.6,9.9c0,0.5-0.4,0.9-0.9,0.9H0.9C0.4,10.8,0,10.4,0,9.9V8.1c0-0.5,0.4-0.9,0.9-0.9h19.8
		c0.5,0,0.9,0.4,0.9,0.9V9.9z M21.6,17.1c0,0.5-0.4,0.9-0.9,0.9H0.9C0.4,18,0,17.6,0,17.1v-1.8c0-0.5,0.4-0.9,0.9-0.9h19.8
		c0.5,0,0.9,0.4,0.9,0.9V17.1z"/>
</g>
</svg>
