<?xml version="1.0" encoding="utf-8"?>
<!-- Generator: Adobe Illustrator 18.1.1, SVG Export Plug-In . SVG Version: 6.00 Build 0)  -->
<svg version="1.1" id="Layer_1" xmlns="http://www.w3.org/2000/svg" xmlns:xlink="http://www.w3.org/1999/xlink" x="0px" y="0px"
	 width="280px" height="81.8px" viewBox="0 0 280 81.8" enable-background="new 0 0 280 81.8" xml:space="preserve">
<g>
	<g>
		<ellipse fill="#0F1132" cx="140" cy="40.9" rx="139.5" ry="40.4"/>
		<path fill="#FFFFFF" d="M140,81.8c-37.3,0-72.4-4.2-98.8-11.9C14.6,62.2,0,51.9,0,40.9c0-11,14.6-21.3,41.2-29
			C67.6,4.2,102.7,0,140,0c37.3,0,72.4,4.2,98.8,11.9c26.6,7.7,41.2,18,41.2,29c0,11-14.6,21.3-41.2,29
			C212.4,77.6,177.3,81.8,140,81.8z M140,1c-37.2,0-72.2,4.2-98.5,11.8c-12.8,3.7-22.8,8-29.8,12.8C4.6,30.4,1,35.6,1,40.9
			c0,5.3,3.6,10.4,10.8,15.3c7,4.8,17,9.1,29.8,12.8c26.3,7.6,61.3,11.8,98.5,11.8c37.2,0,72.2-4.2,98.5-11.8
			c12.8-3.7,22.8-8,29.8-12.8c7.1-4.9,10.8-10,10.8-15.3c0-5.3-3.6-10.4-10.8-15.3c-7-4.8-17-9.1-29.8-12.8C212.2,5.2,177.2,1,140,1
			z"/>
	</g>
	<g>
		<path fill="#FFCF35" d="M39,29.9v14.8c0,1.3,0,2.7,0,4h8.9l2.3-4.8l0.8-0.1l-0.4,6.5l-0.1,0.1c-3.1,0-6-0.1-8.7-0.1h-4.6
			c-1.5,0-3,0-4.5,0.1l-0.1-0.8l2.2-0.7c0.3-0.1,0.5-0.3,0.5-0.6c0-0.5,0-1,0-1.6c0-0.6,0-1.3,0-2V30c0-0.6,0-1.2,0-1.7
			c0-0.5,0-0.9,0-1.3c0-0.3-0.2-0.5-0.4-0.6l-2.3-0.7l0-0.8c1.6,0,3.1,0.1,4.5,0.1c1.5,0,3,0,4.5-0.1l0.1,0.8l-2.3,0.7
			c-0.3,0.1-0.4,0.3-0.5,0.6c0,0.4,0,1,0,1.9C39,29.5,39,29.9,39,29.9z"/>
		<path fill="#FFCF35" d="M68.2,49c-1,0.6-2.1,1.1-3.2,1.4c-1.1,0.3-2.1,0.4-3,0.4c-2.7,0-4.8-0.8-6.5-2.3c-1.6-1.5-2.5-3.6-2.5-6.3
			c0-2.7,0.8-4.9,2.3-6.6c1.5-1.7,3.6-2.6,6.1-2.6c2.1,0,3.8,0.6,5,1.9c1.2,1.3,1.8,3,1.8,5.3c0,0.3,0,0.7-0.1,1H56.8
			c0,2.6,0.6,4.5,1.8,5.6c1.2,1.1,3.1,1.7,5.7,1.7c1.2,0,2.4-0.1,3.7-0.3L68.2,49z M64.6,39.8v-0.5c0-1.7-0.3-3-0.8-3.7
			c-0.5-0.7-1.3-1.1-2.4-1.1c-1.4,0-2.5,0.5-3.2,1.6c-0.7,1-1.2,2.3-1.3,3.8H64.6z"/>
		<path fill="#FFCF35" d="M68.5,33.4c1.5,0,2.9,0.1,4.1,0.1c1.1,0,2.4,0,3.9-0.1l0.1,0.7l-2.1,0.6c1,2.8,2.1,5.8,3.5,9
			c0.3,0.8,0.6,1.6,0.9,2.4c0.3-0.8,0.6-1.6,0.9-2.4c1.1-2.7,2.3-5.7,3.5-9l-2.1-0.6l-0.1-0.7c1,0,2,0.1,3.1,0.1
			c1.1,0,2.1,0,3.2-0.1l0.1,0.7l-1.8,0.5c-0.3,0.1-0.5,0.3-0.7,0.7c-1,2.2-2.1,4.9-3.3,7.9c-1.3,3.1-2.2,5.4-2.9,7.1l-1.5,0.2
			c-0.7-1.8-1.6-4.2-2.9-7.2c-1.3-3.1-2.3-5.7-3.2-7.9c-0.2-0.4-0.5-0.7-0.8-0.8l-1.7-0.5L68.5,33.4z"/>
		<path fill="#FFCF35" d="M87.8,34.3c2.1-0.4,4.1-0.8,5.9-1.3l0.2,0.1c-0.1,1.6-0.1,3.3-0.1,5.2v7c0,1.5,0,2.5,0,3
			c0,0.3,0.2,0.5,0.5,0.6l2.1,0.6l0,0.7c-1.7,0-3.1-0.1-4.3-0.1c-1.2,0-2.6,0-4.2,0.1l-0.1-0.7l2.1-0.6c0.3-0.1,0.4-0.3,0.5-0.6
			c0-0.5,0-1.3,0-2.4V40c0-1.6,0-3.1-0.1-4.4l-2.4-0.7L87.8,34.3z M93.9,26.6c0,0.6-0.2,1.2-0.6,1.6c-0.4,0.4-0.9,0.6-1.5,0.6
			c-0.6,0-1.1-0.2-1.5-0.6c-0.4-0.4-0.6-0.9-0.6-1.5c0-0.7,0.2-1.2,0.6-1.6c0.4-0.4,0.9-0.6,1.6-0.6c0.6,0,1.1,0.2,1.5,0.5
			C93.7,25.4,93.9,25.9,93.9,26.6z"/>
		<path fill="#FFFFFF" d="M120.3,26.5c-1.3-0.4-2.4-0.6-3.5-0.6c-1.6,0-2.9,0.4-3.8,1.2c-1,0.8-1.4,1.9-1.4,3.2
			c0,0.8,0.2,1.5,0.5,2.1c0.3,0.6,0.8,1.1,1.3,1.6c0.6,0.4,1.2,0.8,1.9,1.2c0.7,0.4,1.5,0.7,2.2,1c0.8,0.4,1.6,0.7,2.4,1.2
			c0.8,0.4,1.5,0.9,2.1,1.4c0.6,0.5,1.1,1.2,1.5,2c0.4,0.8,0.6,1.7,0.6,2.7c0,2.4-0.9,4.3-2.8,5.5c-1.9,1.3-4.3,1.9-7.3,1.9
			c-1.9,0-4.1-0.3-6.4-1l-0.1-0.1l0.9-6.2l0.8-0.1l1.3,5.2c1.3,0.5,2.6,0.8,3.9,0.8c1.8,0,3.2-0.4,4.2-1.2c1-0.8,1.5-1.9,1.5-3.4
			c0-0.8-0.2-1.5-0.5-2c-0.3-0.6-0.8-1.1-1.3-1.5c-0.6-0.4-1.2-0.8-1.9-1.2c-0.7-0.3-1.4-0.7-2.2-1c-0.8-0.4-1.7-0.8-2.5-1.2
			c-0.8-0.4-1.5-0.9-2.2-1.5c-0.6-0.6-1.2-1.3-1.6-2.1c-0.4-0.8-0.6-1.8-0.6-2.9c0-2.2,0.9-3.9,2.8-5.1c1.8-1.2,4.1-1.8,6.8-1.8
			c1.9,0,3.9,0.2,6,0.7l0.1,0.1l-1.1,5.7l-0.7,0.1L120.3,26.5z"/>
		<path fill="#FFFFFF" d="M143.2,41.5c0,2.8-0.8,5-2.5,6.7c-1.7,1.7-3.8,2.6-6.4,2.6c-2.5,0-4.5-0.8-6.1-2.4
			c-1.5-1.6-2.3-3.7-2.3-6.3c0-2.7,0.8-4.8,2.4-6.5c1.6-1.7,3.8-2.5,6.4-2.5c2.5,0,4.6,0.8,6.1,2.3C142.4,36.9,143.2,39,143.2,41.5z
			 M129.6,41.7c0,2.3,0.4,4.1,1.3,5.5c0.8,1.4,2.1,2.1,3.8,2.1c1.6,0,2.7-0.6,3.6-1.9c0.8-1.3,1.2-3.1,1.2-5.6
			c0-2.3-0.4-4.1-1.3-5.5c-0.9-1.3-2.1-2-3.7-2c-1.5,0-2.7,0.6-3.6,1.8C130,37.4,129.6,39.3,129.6,41.7z"/>
		<path fill="#FFFFFF" d="M145.2,24.8l-0.1-0.6c2.1-0.4,4.1-0.8,5.9-1.3l0.2,0.1c-0.1,2-0.1,4.7-0.1,8.2v11.8c0,2.2,0,3.9,0,5.2
			c0,0.4,0.2,0.6,0.5,0.7l2,0.6l0.1,0.7c-1.6,0-3.1-0.1-4.2-0.1c-1.2,0-2.6,0-4.2,0.1l-0.1-0.7l2.1-0.6c0.3-0.1,0.5-0.3,0.5-0.6
			c0-1.4,0-2.9,0-4.6v-7.5c0-4.5,0-8.1-0.1-10.9L145.2,24.8z"/>
		<path fill="#FFFFFF" d="M155.4,34.3c2.1-0.4,4.1-0.8,5.9-1.3l0.2,0.1c-0.1,1.6-0.1,3.3-0.1,5.2v7c0,1.5,0,2.5,0,3
			c0,0.3,0.2,0.5,0.5,0.6l2.1,0.6l0,0.7c-1.7,0-3.1-0.1-4.3-0.1c-1.2,0-2.6,0-4.2,0.1l-0.1-0.7l2.1-0.6c0.3-0.1,0.4-0.3,0.5-0.6
			c0-0.5,0-1.3,0-2.4V40c0-1.6,0-3.1-0.1-4.4l-2.4-0.7L155.4,34.3z M161.5,26.6c0,0.6-0.2,1.2-0.6,1.6c-0.4,0.4-0.9,0.6-1.5,0.6
			c-0.6,0-1.1-0.2-1.5-0.6c-0.4-0.4-0.6-0.9-0.6-1.5c0-0.7,0.2-1.2,0.6-1.6c0.4-0.4,0.9-0.6,1.6-0.6c0.6,0,1.1,0.2,1.5,0.5
			C161.3,25.4,161.5,25.9,161.5,26.6z"/>
		<path fill="#FFFFFF" d="M180.6,49c-0.8,0.5-1.7,0.9-2.8,1.3c-1.1,0.3-2.2,0.5-3.3,0.5c-2.6,0-4.7-0.8-6.3-2.3
			c-1.6-1.5-2.4-3.6-2.4-6.1c0-2.8,0.9-5,2.7-6.8c1.8-1.7,4-2.6,6.8-2.6c1.8,0,3.5,0.4,5.2,1.1c-0.4,1.6-0.8,3.3-1.1,5l-0.7,0.1
			l-1.5-4.4c-0.6-0.2-1.2-0.3-1.9-0.3c-1.8,0-3.2,0.6-4.2,1.9c-1,1.3-1.5,2.9-1.5,5c0,2.4,0.6,4.2,1.7,5.4c1.2,1.2,3,1.7,5.5,1.7
			c1.2,0,2.4-0.1,3.7-0.3L180.6,49z"/>
		<path fill="#FFFFFF" d="M182.3,34.3c2.1-0.4,4.1-0.8,5.9-1.3l0.2,0.1c-0.1,1.6-0.1,3.3-0.1,5.2v7c0,1.5,0,2.5,0,3
			c0,0.3,0.2,0.5,0.5,0.6l2.1,0.6l0,0.7c-1.7,0-3.1-0.1-4.3-0.1c-1.2,0-2.6,0-4.2,0.1l-0.1-0.7l2.1-0.6c0.3-0.1,0.4-0.3,0.5-0.6
			c0-0.5,0-1.3,0-2.4V40c0-1.6,0-3.1-0.1-4.4l-2.4-0.7L182.3,34.3z M188.5,26.6c0,0.6-0.2,1.2-0.6,1.6c-0.4,0.4-0.9,0.6-1.5,0.6
			c-0.6,0-1.1-0.2-1.5-0.6c-0.4-0.4-0.6-0.9-0.6-1.5c0-0.7,0.2-1.2,0.6-1.6c0.4-0.4,0.9-0.6,1.6-0.6c0.6,0,1.1,0.2,1.5,0.5
			C188.3,25.4,188.5,25.9,188.5,26.6z"/>
		<path fill="#FFFFFF" d="M198,35.4c-0.1,4.1-0.1,7.4-0.1,9.9c0,1.3,0.2,2.1,0.6,2.6c0.4,0.5,1.1,0.7,2.1,0.7c0.8,0,1.9-0.1,3.3-0.3
			l0.1,0.8c-2.1,1.1-4,1.6-5.6,1.6c-1.3,0-2.3-0.4-3-1.1c-0.7-0.7-1-1.8-1-3.2c0-2.4,0-6.1,0.1-11.1l-2.5-0.6l-0.1-0.7l2.8-0.2
			l1.3-4.4c0.7-0.2,1.3-0.4,1.9-0.5l0.2,0.1c0,1.5-0.1,2.8-0.1,4.1v0.7h5.5v1.7H198z"/>
		<path fill="#FFFFFF" d="M222.4,41.5c0,2.8-0.8,5-2.5,6.7c-1.7,1.7-3.8,2.6-6.4,2.6c-2.5,0-4.5-0.8-6.1-2.4
			c-1.5-1.6-2.3-3.7-2.3-6.3c0-2.7,0.8-4.8,2.4-6.5c1.6-1.7,3.8-2.5,6.4-2.5c2.5,0,4.6,0.8,6.1,2.3C221.6,36.9,222.4,39,222.4,41.5z
			 M208.8,41.7c0,2.3,0.4,4.1,1.3,5.5c0.8,1.4,2.1,2.1,3.8,2.1c1.6,0,2.7-0.6,3.6-1.9c0.8-1.3,1.2-3.1,1.2-5.6
			c0-2.3-0.4-4.1-1.3-5.5c-0.9-1.3-2.1-2-3.7-2c-1.5,0-2.7,0.6-3.6,1.8C209.3,37.4,208.8,39.3,208.8,41.7z"/>
		<path fill="#FFFFFF" d="M224.5,34.3c2-0.4,4-0.8,5.8-1.3l0.2,0.1v2.1c2.2-1.5,4.4-2.3,6.6-2.3l0.1,0.1c-0.4,1.8-0.7,3.7-1,5.6
			l-0.7,0.1c-0.3-1-0.7-1.9-1-2.5c-0.3-0.6-0.8-0.9-1.5-0.9c-0.7,0-1.5,0.3-2.5,0.9v7.9c0,1.9,0,3.2,0,4.1c0,0.3,0.2,0.5,0.5,0.6
			l2.4,0.7l0.1,0.7c-1.9,0-3.4-0.1-4.6-0.1c-1.2,0-2.6,0-4.2,0.1l-0.1-0.7l2.1-0.6c0.3-0.1,0.4-0.3,0.5-0.6c0-0.5,0-1.3,0-2.2V40
			c0-2,0-3.4-0.1-4.4l-2.4-0.7L224.5,34.3z"/>
		<path fill="#FFFFFF" d="M247.7,34.8c-0.7-0.2-1.5-0.3-2.3-0.3c-1.1,0-2.1,0.2-2.8,0.7c-0.7,0.4-1,1-1,1.8c0,0.7,0.2,1.3,0.7,1.7
			c0.5,0.4,1.3,0.8,2.5,1.3l1.5,0.5c1.7,0.6,2.9,1.2,3.7,2c0.8,0.7,1.2,1.7,1.2,2.9c0,1.7-0.7,3-2,4c-1.3,1-3,1.4-5,1.4
			c-1.8,0-3.7-0.4-5.7-1.1c0.4-1.6,0.7-3.1,1-4.6l0.7-0.1l1.3,3.9c0.7,0.3,1.6,0.4,2.6,0.4c1.1,0,2-0.2,2.7-0.7c0.7-0.5,1-1.1,1-1.9
			c0-0.8-0.2-1.4-0.7-1.8c-0.5-0.4-1.2-0.8-2.2-1.2l-1.9-0.6c-1.6-0.5-2.8-1.2-3.4-2c-0.6-0.8-0.9-1.7-0.9-2.9
			c0-1.6,0.6-2.8,1.8-3.8c1.2-0.9,2.8-1.4,4.8-1.4c1.8,0,3.5,0.3,5,0.8c-0.3,1.4-0.6,2.8-0.9,4.4l-0.7,0.1L247.7,34.8z"/>
	</g>
	<g>
		<path fill="#FFFFFF" d="M138.7,57.3v4.5c0,0.4,0,0.8,0,1.2h2.7l0.7-1.5l0.2,0l-0.1,2l0,0c-1,0-1.8,0-2.7,0h-1.4
			c-0.4,0-0.9,0-1.4,0l0-0.2l0.7-0.2c0.1,0,0.1-0.1,0.1-0.2c0-0.1,0-0.3,0-0.5c0-0.2,0-0.4,0-0.6v-4.5c0-0.2,0-0.4,0-0.5
			c0-0.2,0-0.3,0-0.4c0-0.1,0-0.2-0.1-0.2l-0.7-0.2l0-0.2c0.5,0,0.9,0,1.4,0c0.4,0,0.9,0,1.4,0l0,0.2l-0.7,0.2
			c-0.1,0-0.1,0.1-0.1,0.2c0,0.1,0,0.3,0,0.6C138.7,57.2,138.7,57.3,138.7,57.3z"/>
		<path fill="#FFFFFF" d="M147.2,57.3v4.5c0,0.4,0,0.8,0,1.2h2.7l0.7-1.5l0.2,0l-0.1,2l0,0c-1,0-1.8,0-2.7,0h-1.4
			c-0.4,0-0.9,0-1.4,0l0-0.2l0.7-0.2c0.1,0,0.1-0.1,0.1-0.2c0-0.1,0-0.3,0-0.5c0-0.2,0-0.4,0-0.6v-4.5c0-0.2,0-0.4,0-0.5
			c0-0.2,0-0.3,0-0.4c0-0.1,0-0.2-0.1-0.2l-0.7-0.2l0-0.2c0.5,0,0.9,0,1.4,0c0.4,0,0.9,0,1.4,0l0,0.2l-0.7,0.2
			c-0.1,0-0.1,0.1-0.1,0.2c0,0.1,0,0.3,0,0.6C147.2,57.2,147.2,57.3,147.2,57.3z"/>
		<path fill="#FFFFFF" d="M155.8,61.9c0,0.2,0,0.4,0,0.6c0,0.2,0,0.3,0,0.5c0,0.1,0.1,0.1,0.1,0.2l0.8,0.2l0,0.2c-0.5,0-1,0-1.5,0
			c-0.4,0-0.9,0-1.4,0l0-0.2l0.7-0.2c0.1,0,0.1-0.1,0.1-0.2c0-0.1,0-0.3,0-0.5c0-0.2,0-0.4,0-0.6v-4.5c0-0.2,0-0.4,0-0.5
			c0-0.2,0-0.3,0-0.4c0-0.1,0-0.2-0.1-0.2l-0.7-0.2l0-0.2c0.5,0,0.9,0,1.4,0c0.3,0,0.6,0,0.9,0c0.3,0,0.5,0,0.8,0
			c0.9,0,1.5,0.2,2,0.5c0.4,0.3,0.7,0.9,0.7,1.5c0,0.8-0.3,1.4-0.8,1.9c-0.5,0.4-1.2,0.7-2.2,0.7c-0.3,0-0.5,0-0.8-0.1V61.9z
			 M155.8,59.8c0.3,0,0.5,0.1,0.8,0.1c0.6,0,1-0.2,1.3-0.5c0.3-0.3,0.5-0.8,0.5-1.4c0-0.6-0.1-1.1-0.4-1.3c-0.3-0.3-0.8-0.4-1.4-0.4
			c-0.2,0-0.5,0-0.7,0V59.8z"/>
	</g>
</g>
</svg>
