<?xml version="1.0" encoding="utf-8"?>
<!-- Generator: Adobe Illustrator 18.1.1, SVG Export Plug-In . SVG Version: 6.00 Build 0)  -->
<svg version="1.1" id="Layer_1" xmlns="http://www.w3.org/2000/svg" xmlns:xlink="http://www.w3.org/1999/xlink" x="0px" y="0px"
	 width="240px" height="44.7px" viewBox="-797.1 941.1 240 44.7" enable-background="new -797.1 941.1 240 44.7"
	 xml:space="preserve">
<g>
	<g>
		<path fill="#FFCF35" d="M-790.1,948.8V965c0,1.4,0,3,0,4.4h9.8l2.5-5.3l0.9-0.1l-0.4,7.1l-0.1,0.1c-3.4,0-6.6-0.1-9.6-0.1h-5.1
			c-1.6,0-3.3,0-4.9,0.1l-0.1-0.9l2.4-0.8c0.3-0.1,0.5-0.3,0.5-0.7c0-0.5,0-1.1,0-1.8c0-0.7,0-1.4,0-2.2v-16.1c0-0.7,0-1.3,0-1.9
			s0-1,0-1.4c0-0.3-0.2-0.5-0.4-0.7l-2.5-0.8v-0.9c1.8,0,3.4,0.1,4.9,0.1c1.6,0,3.3,0,4.9-0.1l0.1,0.9l-2.5,0.8
			c-0.3,0.1-0.4,0.3-0.5,0.7c0,0.4,0,1.1,0,2.1C-790.1,948.4-790.1,948.8-790.1,948.8z"/>
		<path fill="#FFCF35" d="M-758,969.8c-1.1,0.7-2.3,1.2-3.5,1.5c-1.2,0.3-2.3,0.4-3.3,0.4c-3,0-5.3-0.9-7.1-2.5
			c-1.8-1.6-2.7-4-2.7-6.9s0.9-5.4,2.5-7.2c1.6-1.9,4-2.9,6.7-2.9c2.3,0,4.2,0.7,5.5,2.1c1.3,1.4,2,3.3,2,5.8c0,0.3,0,0.8-0.1,1.1
			h-12.4c0,2.9,0.7,4.9,2,6.1c1.3,1.2,3.4,1.9,6.3,1.9c1.3,0,2.6-0.1,4.1-0.3L-758,969.8z M-762,959.7v-0.5c0-1.9-0.3-3.3-0.9-4.1
			c-0.5-0.8-1.4-1.2-2.6-1.2c-1.5,0-2.7,0.5-3.5,1.8c-0.8,1.1-1.3,2.5-1.4,4.2h8.5V959.7z"/>
		<path fill="#FFCF35" d="M-757.7,952.6c1.6,0,3.2,0.1,4.5,0.1c1.2,0,2.6,0,4.3-0.1l0.1,0.8l-2.3,0.7c1.1,3.1,2.3,6.4,3.8,9.9
			c0.3,0.9,0.7,1.8,1,2.6c0.3-0.9,0.7-1.8,1-2.6c1.2-3,2.5-6.3,3.8-9.9l-2.3-0.7l-0.1-0.8c1.1,0,2.2,0.1,3.4,0.1s2.3,0,3.5-0.1
			l0.1,0.8l-2,0.5c-0.3,0.1-0.5,0.3-0.8,0.8c-1.1,2.4-2.3,5.4-3.6,8.7c-1.4,3.4-2.4,5.9-3.2,7.8l-1.6,0.2c-0.8-2-1.8-4.6-3.2-7.9
			c-1.4-3.4-2.5-6.3-3.5-8.7c-0.2-0.4-0.5-0.8-0.9-0.9l-1.9-0.5L-757.7,952.6z"/>
		<path fill="#FFCF35" d="M-736.5,953.6c2.3-0.4,4.5-0.9,6.5-1.4l0.2,0.1c-0.1,1.8-0.1,3.6-0.1,5.7v7.7c0,1.6,0,2.7,0,3.3
			c0,0.3,0.2,0.5,0.5,0.7l2.3,0.7v0.8c-1.9,0-3.4-0.1-4.7-0.1c-1.3,0-2.9,0-4.6,0.1l-0.1-0.8l2.3-0.7c0.3-0.1,0.4-0.3,0.5-0.7
			c0-0.5,0-1.4,0-2.6v-6.5c0-1.8,0-3.4-0.1-4.8l-2.6-0.8L-736.5,953.6z M-729.8,945.2c0,0.7-0.2,1.3-0.7,1.8s-1,0.7-1.6,0.7
			s-1.2-0.2-1.6-0.7s-0.7-1-0.7-1.6c0-0.8,0.2-1.3,0.7-1.8c0.4-0.4,1-0.7,1.8-0.7c0.7,0,1.2,0.2,1.6,0.5
			C-730,943.9-729.8,944.4-729.8,945.2z"/>
		<path fill="#FFFFFF" d="M-700.8,945.1c-1.4-0.4-2.6-0.7-3.8-0.7c-1.8,0-3.2,0.4-4.2,1.3c-1.1,0.9-1.5,2.1-1.5,3.5
			c0,0.9,0.2,1.6,0.5,2.3c0.3,0.7,0.9,1.2,1.4,1.8c0.7,0.4,1.3,0.9,2.1,1.3c0.8,0.4,1.6,0.8,2.4,1.1c0.9,0.4,1.8,0.8,2.6,1.3
			c0.9,0.4,1.6,1,2.3,1.5c0.7,0.5,1.2,1.3,1.6,2.2c0.4,0.9,0.7,1.9,0.7,3c0,2.6-1,4.7-3.1,6c-2.1,1.4-4.7,2.1-8,2.1
			c-2.1,0-4.5-0.3-7-1.1l-0.1-0.1l1-6.8l0.9-0.1l1.4,5.7c1.4,0.5,2.9,0.9,4.3,0.9c2,0,3.5-0.4,4.6-1.3c1.1-0.9,1.6-2.1,1.6-3.7
			c0-0.9-0.2-1.6-0.5-2.2c-0.3-0.7-0.9-1.2-1.4-1.6c-0.7-0.4-1.3-0.9-2.1-1.3c-0.8-0.3-1.5-0.8-2.4-1.1c-0.9-0.4-1.9-0.9-2.7-1.3
			c-0.9-0.4-1.6-1-2.4-1.6c-0.7-0.7-1.3-1.4-1.8-2.3c-0.4-0.9-0.7-2-0.7-3.2c0-2.4,1-4.3,3.1-5.6c2-1.3,4.5-2,7.5-2
			c2.1,0,4.3,0.2,6.6,0.8l0.1,0.1l-1.2,6.3l-0.8,0.1L-700.8,945.1z"/>
		<path fill="#FFFFFF" d="M-675.7,961.5c0,3.1-0.9,5.5-2.7,7.4c-1.9,1.9-4.2,2.9-7,2.9c-2.7,0-4.9-0.9-6.7-2.6
			c-1.6-1.8-2.5-4.1-2.5-6.9c0-3,0.9-5.3,2.6-7.1c1.8-1.9,4.2-2.7,7-2.7c2.7,0,5.1,0.9,6.7,2.5
			C-676.6,956.5-675.7,958.8-675.7,961.5z M-690.6,961.7c0,2.5,0.4,4.5,1.4,6c0.9,1.5,2.3,2.3,4.2,2.3c1.8,0,3-0.7,4-2.1
			c0.9-1.4,1.3-3.4,1.3-6.1c0-2.5-0.4-4.5-1.4-6c-1-1.4-2.3-2.2-4.1-2.2c-1.6,0-3,0.7-4,2C-690.2,957-690.6,959.1-690.6,961.7z"/>
		<path fill="#FFFFFF" d="M-673.5,943.2l-0.1-0.7c2.3-0.4,4.5-0.9,6.5-1.4l0.2,0.1c-0.1,2.2-0.1,5.2-0.1,9v13c0,2.4,0,4.3,0,5.7
			c0,0.4,0.2,0.7,0.5,0.8l2.2,0.7l0.1,0.8c-1.8,0-3.4-0.1-4.6-0.1c-1.3,0-2.9,0-4.6,0.1l-0.1-0.8l2.3-0.7c0.3-0.1,0.5-0.3,0.5-0.7
			c0-1.5,0-3.2,0-5.1v-8.2c0-4.9,0-8.9-0.1-12L-673.5,943.2z"/>
		<path fill="#FFFFFF" d="M-662.3,953.6c2.3-0.4,4.5-0.9,6.5-1.4l0.2,0.1c-0.1,1.8-0.1,3.6-0.1,5.7v7.7c0,1.6,0,2.7,0,3.3
			c0,0.3,0.2,0.5,0.5,0.7l2.3,0.7v0.8c-1.9,0-3.4-0.1-4.7-0.1c-1.3,0-2.9,0-4.6,0.1l-0.1-0.8l2.3-0.7c0.3-0.1,0.4-0.3,0.5-0.7
			c0-0.5,0-1.4,0-2.6v-6.5c0-1.8,0-3.4-0.1-4.8l-2.6-0.8L-662.3,953.6z M-655.6,945.2c0,0.7-0.2,1.3-0.7,1.8s-1,0.7-1.6,0.7
			s-1.2-0.2-1.6-0.7s-0.7-1-0.7-1.6c0-0.8,0.2-1.3,0.7-1.8c0.4-0.4,1-0.7,1.8-0.7c0.7,0,1.2,0.2,1.6,0.5
			C-655.8,943.9-655.6,944.4-655.6,945.2z"/>
		<path fill="#FFFFFF" d="M-634.6,969.8c-0.9,0.5-1.9,1-3.1,1.4c-1.2,0.3-2.4,0.5-3.6,0.5c-2.9,0-5.2-0.9-6.9-2.5
			c-1.8-1.6-2.6-4-2.6-6.7c0-3.1,1-5.5,3-7.5c2-1.9,4.4-2.9,7.5-2.9c2,0,3.8,0.4,5.7,1.2c-0.4,1.8-0.9,3.6-1.2,5.5l-0.8,0.1
			l-1.6-4.8c-0.7-0.2-1.3-0.3-2.1-0.3c-2,0-3.5,0.7-4.6,2.1s-1.6,3.2-1.6,5.5c0,2.6,0.7,4.6,1.9,5.9c1.3,1.3,3.3,1.9,6,1.9
			c1.3,0,2.6-0.1,4.1-0.3L-634.6,969.8z"/>
		<path fill="#FFFFFF" d="M-632.7,953.6c2.3-0.4,4.5-0.9,6.5-1.4l0.2,0.1c-0.1,1.8-0.1,3.6-0.1,5.7v7.7c0,1.6,0,2.7,0,3.3
			c0,0.3,0.2,0.5,0.5,0.7l2.3,0.7v0.8c-1.9,0-3.4-0.1-4.7-0.1c-1.3,0-2.9,0-4.6,0.1l-0.1-0.8l2.3-0.7c0.3-0.1,0.4-0.3,0.5-0.7
			c0-0.5,0-1.4,0-2.6v-6.5c0-1.8,0-3.4-0.1-4.8l-2.6-0.8L-632.7,953.6z M-625.9,945.2c0,0.7-0.2,1.3-0.7,1.8s-1,0.7-1.6,0.7
			s-1.2-0.2-1.6-0.7s-0.7-1-0.7-1.6c0-0.8,0.2-1.3,0.7-1.8c0.4-0.4,1-0.7,1.8-0.7c0.7,0,1.2,0.2,1.6,0.5
			C-626.2,943.9-625.9,944.4-625.9,945.2z"/>
		<path fill="#FFFFFF" d="M-615.5,954.8c-0.1,4.5-0.1,8.1-0.1,10.9c0,1.4,0.2,2.3,0.7,2.9c0.4,0.5,1.2,0.8,2.3,0.8
			c0.9,0,2.1-0.1,3.6-0.3l0.1,0.9c-2.3,1.2-4.4,1.8-6.1,1.8c-1.4,0-2.5-0.4-3.3-1.2c-0.8-0.8-1.1-2-1.1-3.5c0-2.6,0-6.7,0.1-12.2
			l-2.7-0.7l-0.1-0.8l3.1-0.2l1.4-4.8c0.8-0.2,1.4-0.4,2.1-0.5l0.2,0.1c0,1.6-0.1,3.1-0.1,4.5v0.8h6v1.9h-6V954.8z"/>
		<path fill="#FFFFFF" d="M-588.7,961.5c0,3.1-0.9,5.5-2.7,7.4c-1.9,1.9-4.2,2.9-7,2.9c-2.7,0-4.9-0.9-6.7-2.6
			c-1.6-1.8-2.5-4.1-2.5-6.9c0-3,0.9-5.3,2.6-7.1c1.8-1.9,4.2-2.7,7-2.7c2.7,0,5.1,0.9,6.7,2.5
			C-589.6,956.5-588.7,958.8-588.7,961.5z M-603.7,961.7c0,2.5,0.4,4.5,1.4,6c0.9,1.5,2.3,2.3,4.2,2.3c1.8,0,3-0.7,4-2.1
			c0.9-1.4,1.3-3.4,1.3-6.1c0-2.5-0.4-4.5-1.4-6c-1-1.4-2.3-2.2-4.1-2.2c-1.6,0-3,0.7-4,2C-603.1,957-603.7,959.1-603.7,961.7z"/>
		<path fill="#FFFFFF" d="M-586.4,953.6c2.2-0.4,4.4-0.9,6.4-1.4l0.2,0.1v2.3c2.4-1.6,4.8-2.5,7.2-2.5l0.1,0.1
			c-0.4,2-0.8,4.1-1.1,6.1l-0.8,0.1c-0.3-1.1-0.8-2.1-1.1-2.7c-0.3-0.7-0.9-1-1.6-1c-0.8,0-1.6,0.3-2.7,1v8.7c0,2.1,0,3.5,0,4.5
			c0,0.3,0.2,0.5,0.5,0.7l2.6,0.8l0.1,0.8c-2.1,0-3.7-0.1-5.1-0.1c-1.3,0-2.9,0-4.6,0.1l-0.1-0.8l2.3-0.7c0.3-0.1,0.4-0.3,0.5-0.7
			c0-0.5,0-1.4,0-2.4v-6.7c0-2.2,0-3.7-0.1-4.8l-2.6-0.8L-586.4,953.6z"/>
		<path fill="#FFFFFF" d="M-560.9,954.2c-0.8-0.2-1.6-0.3-2.5-0.3c-1.2,0-2.3,0.2-3.1,0.8c-0.8,0.4-1.1,1.1-1.1,2
			c0,0.8,0.2,1.4,0.8,1.9s1.4,0.9,2.7,1.4l1.6,0.5c1.9,0.7,3.2,1.3,4.1,2.2c0.9,0.8,1.3,1.9,1.3,3.2c0,1.9-0.8,3.3-2.2,4.4
			c-1.4,1.1-3.3,1.5-5.5,1.5c-2,0-4.1-0.4-6.3-1.2c0.4-1.8,0.8-3.4,1.1-5.1l0.8-0.1l1.4,4.3c0.8,0.3,1.8,0.4,2.9,0.4
			c1.2,0,2.2-0.2,3-0.8c0.8-0.5,1.1-1.2,1.1-2.1c0-0.9-0.2-1.5-0.8-2c-0.5-0.4-1.3-0.9-2.4-1.3l-2.1-0.7c-1.8-0.5-3.1-1.3-3.7-2.2
			c-0.7-0.9-1-1.9-1-3.2c0-1.8,0.7-3.1,2-4.2c1.3-1,3.1-1.5,5.3-1.5c2,0,3.8,0.3,5.5,0.9c-0.3,1.5-0.7,3.1-1,4.8l-0.8,0.1
			L-560.9,954.2z"/>
	</g>
	<g>
		<path fill="#FFFFFF" d="M-680.6,978.9v4.9c0,0.4,0,0.9,0,1.3h3l0.8-1.6h0.2l-0.1,2.2l0,0c-1.1,0-2,0-3,0h-1.5c-0.4,0-1,0-1.5,0
			v-0.2l0.8-0.2c0.1,0,0.1-0.1,0.1-0.2s0-0.3,0-0.5s0-0.4,0-0.7v-4.9c0-0.2,0-0.4,0-0.5c0-0.2,0-0.3,0-0.4c0-0.1,0-0.2-0.1-0.2
			l-0.8-0.2v-0.2c0.5,0,1,0,1.5,0c0.4,0,1,0,1.5,0v0.2l-0.8,0.2c-0.1,0-0.1,0.1-0.1,0.2c0,0.1,0,0.3,0,0.7
			C-680.6,978.8-680.6,978.9-680.6,978.9z"/>
		<path fill="#FFFFFF" d="M-671.3,978.9v4.9c0,0.4,0,0.9,0,1.3h3l0.8-1.6h0.2l-0.1,2.2l0,0c-1.1,0-2,0-3,0h-1.5c-0.4,0-1,0-1.5,0
			v-0.2l0.8-0.2c0.1,0,0.1-0.1,0.1-0.2s0-0.3,0-0.5s0-0.4,0-0.7v-4.9c0-0.2,0-0.4,0-0.5c0-0.2,0-0.3,0-0.4c0-0.1,0-0.2-0.1-0.2
			l-0.8-0.2v-0.2c0.5,0,1,0,1.5,0c0.4,0,1,0,1.5,0v0.2l-0.8,0.2c-0.1,0-0.1,0.1-0.1,0.2c0,0.1,0,0.3,0,0.7
			C-671.3,978.8-671.3,978.9-671.3,978.9z"/>
		<path fill="#FFFFFF" d="M-661.8,983.9c0,0.2,0,0.4,0,0.7c0,0.2,0,0.3,0,0.5c0,0.1,0.1,0.1,0.1,0.2l0.9,0.2v0.2c-0.5,0-1.1,0-1.6,0
			c-0.4,0-1,0-1.5,0v-0.2l0.8-0.2c0.1,0,0.1-0.1,0.1-0.2s0-0.3,0-0.5c0-0.2,0-0.4,0-0.7V979c0-0.2,0-0.4,0-0.5c0-0.2,0-0.3,0-0.4
			c0-0.1,0-0.2-0.1-0.2l-0.8-0.2v-0.2c0.5,0,1,0,1.5,0c0.3,0,0.7,0,1,0s0.5,0,0.9,0c1,0,1.6,0.2,2.2,0.5c0.4,0.3,0.8,1,0.8,1.6
			c0,0.9-0.3,1.5-0.9,2.1c-0.5,0.4-1.3,0.8-2.4,0.8c-0.3,0-0.5,0-0.9-0.1V983.9z M-661.8,981.6c0.3,0,0.5,0.1,0.9,0.1
			c0.7,0,1.1-0.2,1.4-0.5c0.3-0.3,0.5-0.9,0.5-1.5s-0.1-1.2-0.4-1.4c-0.3-0.3-0.9-0.4-1.5-0.4c-0.2,0-0.5,0-0.8,0v3.8H-661.8z"/>
	</g>
</g>
</svg>
