<?xml version="1.0" encoding="utf-8"?>
<!-- Generator: Adobe Illustrator 18.1.1, SVG Export Plug-In . SVG Version: 6.00 Build 0)  -->
<svg version="1.1" id="Layer_1" xmlns="http://www.w3.org/2000/svg" xmlns:xlink="http://www.w3.org/1999/xlink" x="0px" y="0px"
	 width="257px" height="57.3px" viewBox="0 0 257 57.3" enable-background="new 0 0 257 57.3" xml:space="preserve">
<g>
	<g>
		<path fill="#FDB61F" d="M0,33.6l2-0.4c1-0.2,1.4-0.5,1.4-2.7V6.8c0-2.3-0.4-2.5-1.4-2.7L0,3.6V2.8h12.1v0.8L9.7,4.1
			C8.6,4.3,8.3,4.5,8.3,6.8v21.7c0,3.8,0.1,4.3,5,4.3c4,0,4.9-0.3,6.2-2.1c0.7-1,1.8-3.1,2.7-6.1h1.1l-0.5,9.8H0V33.6z"/>
		<path fill="#FDB61F" d="M24.5,22.5c0-7.3,5.1-12.1,11.1-12.1c5.6,0,9.1,3.1,9.1,11.3H29.2c0,7.5,3.2,10.4,7.8,10.4
			c3.4,0,5.5-1.1,7.2-1.9v1.3c-1.2,1-4.4,3.3-8.7,3.3C28.1,34.9,24.5,29.9,24.5,22.5z M29.2,20.5l10.4-0.5c0-5.5-0.9-8.1-4.3-8.1
			C32.1,11.8,29.6,14.5,29.2,20.5z"/>
		<path fill="#FDB61F" d="M47.7,15.4c-0.8-2-1.1-2.6-2.4-3.1L44.2,12v-0.8h10.4V12l-1.2,0.3c-1.1,0.3-1.2,0.7-1.2,1.5
			c0,0.5,0.2,1.4,0.6,2.4l4.7,12.8h0.2l4.7-12.8c0.4-1.2,0.5-2,0.5-2.5c0-0.7-0.3-1.1-1.2-1.4L60.5,12v-0.8h7.4V12l-1.3,0.4
			c-1.2,0.3-1.5,1.3-2.3,3.5l-7.1,18.5h-2.1L47.7,15.4z"/>
		<path fill="#FDB61F" d="M67.4,33.6l1.8-0.5c0.9-0.2,1.2-0.6,1.2-2.4V15.5c0-1.8-0.2-1.9-1.3-2.5l-1.7-0.9v-0.6l7.3-1l0.3,0.2
			c0,0-0.2,2-0.2,4.3v15.7c0,1.9,0.3,2.1,1.2,2.4l1.8,0.5v0.8H67.4V33.6z M69.7,4.3c0-1.5,1.2-2.7,2.7-2.7s2.7,1.2,2.7,2.7
			C75.2,5.7,74,7,72.5,7S69.7,5.7,69.7,4.3z"/>
		<path fill="#FFFFFF" d="M87.8,33.4l-0.5-8.3h1.1c0.9,2.1,1.6,3.9,2.8,5.7c1.2,1.9,2.7,2.5,5.9,2.5c4.5,0,6.3-2.3,6.3-5.7
			c0-3.2-2-4.9-7.5-7.4c-5.5-2.5-8-4.8-8-9.4c0-4.9,3.9-8.6,9.9-8.6c3.6,0,6,0.5,7.4,1l0.5,7.5h-1c-1-2.5-1.5-3.3-2.4-4.6
			c-1.1-1.6-1.9-2.2-5-2.2c-3.6,0-5.8,1.7-5.8,5c0,3,1.3,4.5,6.4,6.8c6.7,3.1,9.5,5.5,9.5,9.4c0,5.5-3.6,9.9-10.8,9.9
			C92.9,35,89.7,34.2,87.8,33.4z"/>
		<path fill="#FFFFFF" d="M109.2,22.8c0-8,5.5-12.3,11.3-12.3c6.4,0,11.3,4,11.3,12c0,8-5.5,12.5-11.3,12.5
			C114.1,35,109.2,30.8,109.2,22.8z M126.8,23.1c0-8.2-2.1-11.3-6.5-11.3c-4.1,0-6.2,3.1-6.2,10.3c0,8.2,2.2,11.5,6.6,11.5
			C124.7,33.6,126.8,30.4,126.8,23.1z"/>
		<path fill="#FFFFFF" d="M132.8,33.6l1.8-0.5c0.9-0.2,1.2-0.6,1.2-2.4v-26c0-1.8-0.3-1.9-1.3-2.4l-1.9-0.9V0.7l7.6-0.7l0.3,0.3
			c0,0-0.2,2.4-0.2,5.4v25.1c0,1.9,0.3,2.1,1.2,2.4l1.8,0.5v0.8h-10.5V33.6z"/>
		<path fill="#FFFFFF" d="M143.7,33.6l1.8-0.5c0.9-0.2,1.2-0.6,1.2-2.4V15.5c0-1.8-0.2-1.9-1.3-2.5l-1.7-0.9v-0.6l7.3-1l0.3,0.2
			c0,0-0.2,2-0.2,4.3v15.7c0,1.9,0.3,2.1,1.2,2.4l1.8,0.5v0.8h-10.5V33.6z M146,4.3c0-1.5,1.2-2.7,2.7-2.7s2.7,1.2,2.7,2.7
			c0,1.4-1.2,2.7-2.7,2.7S146,5.7,146,4.3z"/>
		<path fill="#FFFFFF" d="M155,23.1c0-9.8,7.2-12.6,12.8-12.6c4.3,0,6.3,1.5,6.3,3.8c0,1.4-1,2.5-2.6,2.5c-1.7,0-2.3-1-2.5-2.5
			c-0.3-2-0.7-2.4-2.3-2.4c-3.7,0-6.8,2.5-6.8,9.5c0,7.1,2.3,10.8,7.3,10.8c3,0,5.8-1.1,7.2-1.9v1.3c-1.4,1.2-4.6,3.3-8.7,3.3
			C158.7,34.9,155,30,155,23.1z"/>
		<path fill="#FFFFFF" d="M175.2,33.6l1.8-0.5c0.9-0.2,1.2-0.6,1.2-2.4V15.5c0-1.8-0.2-1.9-1.3-2.5l-1.7-0.9v-0.6l7.3-1l0.3,0.2
			c0,0-0.2,2-0.2,4.3v15.7c0,1.9,0.3,2.1,1.2,2.4l1.8,0.5v0.8h-10.5V33.6z M177.5,4.3c0-1.5,1.2-2.7,2.7-2.7c1.5,0,2.7,1.2,2.7,2.7
			c0,1.4-1.2,2.7-2.7,2.7C178.7,7,177.5,5.7,177.5,4.3z"/>
		<path fill="#FFFFFF" d="M188.5,30.2V13.1h-3.1v-0.8c3.1-1,5.3-3.1,6.5-6.6h1.1v5.5h6.4l-0.5,1.9H193v16.6c0,2,1,2.8,3,2.8
			c1.3,0,2.6-0.3,3.6-0.6v0.9c-0.8,0.6-2.9,2.1-5.9,2.1C190.9,34.9,188.5,33.6,188.5,30.2z"/>
		<path fill="#FFFFFF" d="M199.8,22.8c0-8,5.5-12.3,11.3-12.3c6.4,0,11.3,4,11.3,12c0,8-5.5,12.5-11.3,12.5
			C204.7,35,199.8,30.8,199.8,22.8z M217.5,23.1c0-8.2-2.1-11.3-6.5-11.3c-4.1,0-6.2,3.1-6.2,10.3c0,8.2,2.2,11.5,6.6,11.5
			C215.3,33.6,217.5,30.4,217.5,23.1z"/>
		<path fill="#FFFFFF" d="M223.4,33.6l1.8-0.5c0.9-0.2,1.2-0.6,1.2-2.4V15.5c0-1.8-0.2-1.9-1.3-2.5l-1.7-0.9v-0.6l7.1-1l0.3,0.3
			l-0.1,2.7h0.2c1.6-1.6,4.2-3.1,6.5-3.1c1.9,0,3,1,3,2.7c0,1.7-1.1,2.6-2.4,2.6c-1.6,0-2.1-0.8-2.5-1.7c-0.2-0.6-0.4-0.8-0.8-0.8
			c-0.9,0-3,1-3.8,1.9v15.6c0,1.9,0.3,2.2,1.2,2.4l2.3,0.5v0.8h-10.9V33.6z"/>
		<path fill="#FFFFFF" d="M241.2,33.8l-0.1-6.7h0.9c0.7,1.8,1.5,2.9,2.4,4.4c1,1.5,1.7,2,4.1,2c2.7,0,4.7-1.5,4.7-4.1
			c0-2.5-1.7-3.7-5.4-5.2c-3.9-1.5-6.6-3.5-6.6-7c0-4.2,3.7-6.8,8.4-6.8c2.5,0,4.3,0.4,5.8,1l0.2,5.8h-0.8c-0.7-1.5-1.4-2.7-2.3-3.8
			c-1.1-1.4-2.1-1.5-3.5-1.5c-3,0-4.4,1.3-4.4,3.6c0,2,1.6,3.6,5.3,5.1c4.2,1.6,7,3.4,7,6.9c0,4.3-3.4,7.6-9,7.6
			C245.4,34.9,243,34.5,241.2,33.8z"/>
	</g>
	<g>
		<path fill="#FFFFFF" d="M116.2,53.7l-1,3.6h-10.2l0.1-0.6c0.1,0,0.3,0,0.6-0.1c0.3,0,0.4-0.1,0.6-0.1c0.2-0.1,0.4-0.2,0.5-0.3
			c0.1-0.1,0.2-0.3,0.2-0.5l1.8-7.8c0-0.1,0-0.2,0.1-0.3c0-0.1,0-0.1,0-0.2c0-0.2-0.1-0.4-0.3-0.5c-0.2-0.1-0.6-0.2-1.1-0.3l0.1-0.6
			h6.1l-0.1,0.6c-0.2,0-0.4,0-0.6,0.1c-0.3,0-0.5,0.1-0.6,0.1c-0.2,0.1-0.4,0.2-0.5,0.3c-0.1,0.1-0.2,0.3-0.2,0.5l-1.7,7.4
			c0,0.2-0.1,0.3-0.1,0.4c0,0.1,0,0.3,0,0.3c0,0.3,0.1,0.5,0.3,0.6c0.2,0.1,0.7,0.1,1.4,0.1c0.4,0,0.8,0,1.2-0.1
			c0.4-0.1,0.7-0.2,0.9-0.3c0.3-0.3,0.7-0.6,1.1-1.1c0.4-0.5,0.7-0.9,1-1.3H116.2z"/>
		<path fill="#FFFFFF" d="M133.5,53.7l-1,3.6h-10.2l0.1-0.6c0.1,0,0.3,0,0.6-0.1c0.3,0,0.4-0.1,0.6-0.1c0.2-0.1,0.4-0.2,0.5-0.3
			c0.1-0.1,0.2-0.3,0.2-0.5l1.8-7.8c0-0.1,0-0.2,0.1-0.3c0-0.1,0-0.1,0-0.2c0-0.2-0.1-0.4-0.3-0.5c-0.2-0.1-0.6-0.2-1.1-0.3l0.1-0.6
			h6.1l-0.1,0.6c-0.2,0-0.4,0-0.6,0.1c-0.3,0-0.5,0.1-0.6,0.1c-0.2,0.1-0.4,0.2-0.5,0.3c-0.1,0.1-0.2,0.3-0.2,0.5l-1.7,7.4
			c0,0.2-0.1,0.3-0.1,0.4c0,0.1,0,0.3,0,0.3c0,0.3,0.1,0.5,0.3,0.6c0.2,0.1,0.7,0.1,1.4,0.1c0.4,0,0.8,0,1.2-0.1
			c0.4-0.1,0.7-0.2,0.9-0.3c0.3-0.3,0.7-0.6,1.1-1.1c0.4-0.5,0.7-0.9,1-1.3H133.5z"/>
		<path fill="#FFFFFF" d="M152.1,48.5c0,0.6-0.1,1.2-0.4,1.7c-0.3,0.5-0.7,0.9-1.3,1.3c-0.5,0.3-1.2,0.6-1.8,0.7
			c-0.7,0.2-1.4,0.2-2.2,0.2h-1.1l-0.7,3c0,0.1,0,0.2-0.1,0.2c0,0.1,0,0.1,0,0.2c0,0.2,0.1,0.4,0.3,0.5c0.2,0.1,0.6,0.2,1.1,0.2
			l-0.1,0.6h-6l0.1-0.6c0.1,0,0.3,0,0.6-0.1c0.3,0,0.4-0.1,0.6-0.1c0.2-0.1,0.4-0.2,0.5-0.3c0.1-0.1,0.2-0.3,0.2-0.5l1.8-7.8
			c0-0.1,0-0.2,0.1-0.3c0-0.1,0-0.1,0-0.2c0-0.2-0.1-0.4-0.3-0.5c-0.2-0.1-0.6-0.2-1.1-0.3l0.1-0.6h6c1.3,0,2.3,0.2,2.9,0.6
			C151.7,47.2,152.1,47.8,152.1,48.5z M148.8,49.8c0.1-0.4,0.2-0.8,0.2-1.3c0-0.6-0.2-1-0.5-1.3c-0.3-0.3-0.8-0.4-1.5-0.4h-0.6
			l-1.1,4.9h0.5c0.6,0,1-0.1,1.4-0.3c0.4-0.2,0.7-0.4,1-0.7C148.5,50.6,148.7,50.2,148.8,49.8z"/>
	</g>
</g>
</svg>
