<?xml version="1.0" encoding="utf-8"?>
<!-- Generator: Adobe Illustrator 18.1.1, SVG Export Plug-In . SVG Version: 6.00 Build 0)  -->
<svg version="1.1" id="Layer_1" xmlns="http://www.w3.org/2000/svg" xmlns:xlink="http://www.w3.org/1999/xlink" x="0px" y="0px"
	 width="110px" height="64px" viewBox="0 0 110 64" enable-background="new 0 0 110 64" xml:space="preserve">
<g>
	<path fill="#FFFFFF" d="M55,22.9v37.7c0,1.9-1.5,3.4-3.4,3.4H3.4C1.5,64,0,62.5,0,60.6V3.4C0,1.5,1.5,0,3.4,0h28.6v19.4
		c0,1.9,1.5,3.4,3.4,3.4H55z M41.3,28.6c0-0.6-0.5-1.1-1.1-1.1H14.9c-0.6,0-1.1,0.5-1.1,1.1v2.3c0,0.6,0.5,1.1,1.1,1.1h25.2
		c0.6,0,1.1-0.5,1.1-1.1V28.6z M41.3,37.7c0-0.6-0.5-1.1-1.1-1.1H14.9c-0.6,0-1.1,0.5-1.1,1.1V40c0,0.6,0.5,1.1,1.1,1.1h25.2
		c0.6,0,1.1-0.5,1.1-1.1V37.7z M41.3,46.9c0-0.6-0.5-1.1-1.1-1.1H14.9c-0.6,0-1.1,0.5-1.1,1.1v2.3c0,0.6,0.5,1.1,1.1,1.1h25.2
		c0.6,0,1.1-0.5,1.1-1.1V46.9z M53.6,18.3H36.7V1.4c0.5,0.3,0.9,0.6,1.3,1L52.6,17C52.9,17.4,53.2,17.8,53.6,18.3z"/>
</g>
<g>
	<path fill="#FFB61E" d="M110,22.9v37.7c0,1.9-1.5,3.4-3.4,3.4H58.4c-1.9,0-3.4-1.5-3.4-3.4V3.4C55,1.5,56.5,0,58.4,0h28.6v19.4
		c0,1.9,1.5,3.4,3.4,3.4H110z M96.3,28.6c0-0.6-0.5-1.1-1.1-1.1H69.9c-0.6,0-1.1,0.5-1.1,1.1v2.3c0,0.6,0.5,1.1,1.1,1.1h25.2
		c0.6,0,1.1-0.5,1.1-1.1V28.6z M96.3,37.7c0-0.6-0.5-1.1-1.1-1.1H69.9c-0.6,0-1.1,0.5-1.1,1.1V40c0,0.6,0.5,1.1,1.1,1.1h25.2
		c0.6,0,1.1-0.5,1.1-1.1V37.7z M96.3,46.9c0-0.6-0.5-1.1-1.1-1.1H69.9c-0.6,0-1.1,0.5-1.1,1.1v2.3c0,0.6,0.5,1.1,1.1,1.1h25.2
		c0.6,0,1.1-0.5,1.1-1.1V46.9z M108.6,18.3H91.7V1.4c0.5,0.3,0.9,0.6,1.3,1L107.6,17C107.9,17.4,108.2,17.8,108.6,18.3z"/>
</g>
</svg>
