<?xml version="1.0" encoding="utf-8"?>
<!-- Generator: Adobe Illustrator 18.1.1, SVG Export Plug-In . SVG Version: 6.00 Build 0)  -->
<svg version="1.1" id="Layer_1" xmlns="http://www.w3.org/2000/svg" xmlns:xlink="http://www.w3.org/1999/xlink" x="0px" y="0px"
	 width="54.9px" height="64px" viewBox="0 0 54.9 64" enable-background="new 0 0 54.9 64" xml:space="preserve">
<g>
	<path fill="#FFFFFF" d="M54.9,19.4v41.1c0,1.9-1.5,3.4-3.4,3.4h-48C1.5,64,0,62.5,0,60.6V3.4C0,1.5,1.5,0,3.4,0h32
		c1.9,0,4.5,1.1,5.9,2.4l11.1,11.1C53.7,14.9,54.9,17.5,54.9,19.4z M50.3,22.9H35.4c-1.9,0-3.4-1.5-3.4-3.4V4.6H4.6v54.9h45.7V22.9z
		 M14.9,27.4H40c0.6,0,1.1,0.5,1.1,1.1v2.3c0,0.6-0.5,1.1-1.1,1.1H14.9c-0.6,0-1.1-0.5-1.1-1.1v-2.3C13.7,27.9,14.2,27.4,14.9,27.4z
		 M41.1,37.7V40c0,0.6-0.5,1.1-1.1,1.1H14.9c-0.6,0-1.1-0.5-1.1-1.1v-2.3c0-0.6,0.5-1.1,1.1-1.1H40C40.6,36.6,41.1,37.1,41.1,37.7z
		 M41.1,46.9v2.3c0,0.6-0.5,1.1-1.1,1.1H14.9c-0.6,0-1.1-0.5-1.1-1.1v-2.3c0-0.6,0.5-1.1,1.1-1.1H40C40.6,45.7,41.1,46.2,41.1,46.9z
		 M36.6,18.3H50c-0.2-0.6-0.5-1.2-0.8-1.5L38,5.6c-0.2-0.2-0.9-0.6-1.5-0.8V18.3z"/>
</g>
</svg>
