<?xml version="1.0" encoding="utf-8"?>
<!-- Generator: Adobe Illustrator 18.1.1, SVG Export Plug-In . SVG Version: 6.00 Build 0)  -->
<svg version="1.1" id="Layer_1" xmlns="http://www.w3.org/2000/svg" xmlns:xlink="http://www.w3.org/1999/xlink" x="0px" y="0px"
	 width="60px" height="50px" viewBox="0 0 60 50" enable-background="new 0 0 60 50" xml:space="preserve">
<g>
	<path fill="#D0D9DD" d="M29.5,26.2l-24,23.3C5.2,49.8,4.7,50,4.3,50c-0.4,0-0.9-0.2-1.2-0.5L0.5,47C0.2,46.7,0,46.3,0,45.8
		c0-0.4,0.2-0.9,0.5-1.2L20.8,25L0.5,5.3C0.2,5,0,4.5,0,4.2C0,3.8,0.2,3.3,0.5,3l2.6-2.5C3.4,0.2,3.9,0,4.3,0c0.4,0,0.9,0.2,1.2,0.5
		l24,23.3c0.3,0.3,0.5,0.8,0.5,1.2S29.8,25.8,29.5,26.2z"/>
</g>
<g>
	<path fill="#FDB61F" d="M59.5,26.2l-24,23.3c-0.3,0.3-0.8,0.5-1.2,0.5c-0.4,0-0.9-0.2-1.2-0.5L30.5,47c-0.3-0.3-0.5-0.7-0.5-1.1
		c0-0.4,0.2-0.9,0.5-1.2L50.8,25L30.5,5.3C30.2,5,30,4.5,30,4.2c0-0.4,0.2-0.8,0.5-1.1l2.6-2.5C33.4,0.2,33.9,0,34.3,0
		c0.4,0,0.9,0.2,1.2,0.5l24,23.3c0.3,0.3,0.5,0.8,0.5,1.2S59.8,25.8,59.5,26.2z"/>
</g>
</svg>
