<?xml version="1.0" encoding="utf-8"?>
<!-- Generator: Adobe Illustrator 18.1.1, SVG Export Plug-In . SVG Version: 6.00 Build 0)  -->
<svg version="1.1" id="Layer_1" xmlns="http://www.w3.org/2000/svg" xmlns:xlink="http://www.w3.org/1999/xlink" x="0px" y="0px"
	 width="28px" height="25px" viewBox="0 0 28 25" enable-background="new 0 0 28 25" xml:space="preserve">
<g>
	<path fill="#FFFFFF" d="M13.7,13.1L2.5,24.8C2.4,24.9,2.2,25,2,25c-0.2,0-0.4-0.1-0.6-0.2l-1.2-1.3C0.1,23.3,0,23.1,0,22.9
		c0-0.2,0.1-0.4,0.2-0.6l9.4-9.8L0.2,2.7C0.1,2.5,0,2.3,0,2.1c0-0.2,0.1-0.4,0.2-0.6l1.2-1.3C1.6,0.1,1.8,0,2,0
		c0.2,0,0.4,0.1,0.5,0.2l11.2,11.7c0.1,0.2,0.2,0.4,0.2,0.6S13.9,12.9,13.7,13.1z"/>
</g>
<g>
	<path fill="#FDB61F" d="M27.8,13.1L16.6,24.8C16.4,24.9,16.2,25,16,25c-0.2,0-0.4-0.1-0.6-0.2l-1.2-1.3c-0.1-0.1-0.2-0.3-0.2-0.6
		c0-0.2,0.1-0.4,0.2-0.6l9.4-9.8l-9.4-9.8C14.1,2.5,14,2.3,14,2.1c0-0.2,0.1-0.4,0.2-0.6l1.2-1.3C15.6,0.1,15.8,0,16,0
		c0.2,0,0.4,0.1,0.5,0.2l11.2,11.7c0.1,0.2,0.2,0.4,0.2,0.6S27.9,12.9,27.8,13.1z"/>
</g>
</svg>
