<?xml version="1.0" encoding="utf-8"?>
<!-- Generator: Adobe Illustrator 18.1.1, SVG Export Plug-In . SVG Version: 6.00 Build 0)  -->
<svg version="1.1" id="Layer_1" xmlns="http://www.w3.org/2000/svg" xmlns:xlink="http://www.w3.org/1999/xlink" x="0px" y="0px"
	 width="128px" height="54.9px" viewBox="0 0 128 54.9" enable-background="new 0 0 128 54.9" xml:space="preserve">
<g>
	<path fill="#FFFFFF" d="M64,22.9c0,2.5-2,4.6-4.6,4.6v13.7c0,2.5-2.1,4.6-4.6,4.6c-6.4-5.3-16.6-12.5-29-13.6
		c-4.3,1.4-5.7,6.4-2.9,9.3c-2.5,4.1,0.7,7,4.5,10c-2.2,4.4-11.4,4.4-14.7,1.4C10.6,46.4,7.6,40,10.1,32H5.7C2.6,32,0,29.4,0,26.3
		v-6.9c0-3.1,2.6-5.7,5.7-5.7h17.1c13.7,0,25.1-8,32-13.7c2.5,0,4.6,2.1,4.6,4.6v13.7C62,18.3,64,20.3,64,22.9z M54.9,5.8
		C45.5,12.9,36.5,17,27.4,18v9.6c9.1,1,18.1,5,27.4,12.2V5.8z"/>
</g>
<g>
	<path fill="#FDB51E" d="M128.1,22.6c0,2.5-2,4.6-4.6,4.6v13.7c0,2.5-2.1,4.6-4.6,4.6c-6.4-5.3-16.6-12.5-29-13.6
		c-4.3,1.4-5.7,6.4-2.9,9.3c-2.5,4.1,0.7,7,4.5,10c-2.2,4.4-11.4,4.4-14.7,1.4c-2.1-6.4-5.1-12.7-2.6-20.8h-4.4
		c-3.1,0-5.7-2.6-5.7-5.7v-6.9c0-3.1,2.6-5.7,5.7-5.7H87c13.7,0,25.1-8,32-13.7c2.5,0,4.6,2.1,4.6,4.6V18
		C126.1,18,128.1,20,128.1,22.6z M119,5.5c-9.3,7.1-18.4,11.2-27.4,12.2v9.6c9.1,1,18.1,5,27.4,12.2V5.5z"/>
</g>
</svg>
