<?xml version="1.0" encoding="utf-8"?>
<!-- Generator: Adobe Illustrator 18.1.1, SVG Export Plug-In . SVG Version: 6.00 Build 0)  -->
<svg version="1.1" id="Layer_1" xmlns="http://www.w3.org/2000/svg" xmlns:xlink="http://www.w3.org/1999/xlink" x="0px" y="0px"
	 width="60px" height="50px" viewBox="0 0 60 50" enable-background="new 0 0 60 50" xml:space="preserve">
<g>
	<path fill="#FDB61F" d="M30.5,23.8l24-23.3C54.8,0.2,55.3,0,55.7,0c0.4,0,0.9,0.2,1.2,0.5L59.5,3C59.8,3.3,60,3.7,60,4.2
		c0,0.4-0.2,0.9-0.5,1.2L39.2,25l20.2,19.7c0.3,0.3,0.5,0.8,0.5,1.2c0,0.4-0.2,0.8-0.5,1.1l-2.6,2.5c-0.3,0.3-0.8,0.5-1.2,0.5
		c-0.4,0-0.9-0.2-1.2-0.5l-24-23.3C30.2,25.8,30,25.4,30,25S30.2,24.2,30.5,23.8z"/>
</g>
<g>
	<path fill="#D0D9DD" d="M0.5,23.8l24-23.3C24.8,0.2,25.3,0,25.7,0c0.4,0,0.9,0.2,1.2,0.5L29.5,3C29.8,3.3,30,3.7,30,4.2
		c0,0.4-0.2,0.9-0.5,1.2L9.2,25l20.2,19.7c0.3,0.3,0.5,0.8,0.5,1.2c0,0.4-0.2,0.8-0.5,1.1l-2.6,2.5c-0.3,0.3-0.8,0.5-1.2,0.5
		c-0.4,0-0.9-0.2-1.2-0.5l-24-23.3C0.2,25.8,0,25.4,0,25S0.2,24.2,0.5,23.8z"/>
</g>
</svg>
