<?xml version="1.0" encoding="utf-8"?>
<!-- Generator: Adobe Illustrator 18.1.1, SVG Export Plug-In . SVG Version: 6.00 Build 0)  -->
<svg version="1.1" id="Layer_1" xmlns="http://www.w3.org/2000/svg" xmlns:xlink="http://www.w3.org/1999/xlink" x="0px" y="0px"
	 width="28px" height="25px" viewBox="0 0 28 25" enable-background="new 0 0 28 25" xml:space="preserve">
<g>
	<path fill="#FDB61F" d="M14.2,11.9L25.4,0.2C25.6,0.1,25.8,0,26,0c0.2,0,0.4,0.1,0.6,0.2l1.2,1.3C27.9,1.7,28,1.9,28,2.1
		c0,0.2-0.1,0.4-0.2,0.6l-9.4,9.8l9.4,9.8c0.1,0.1,0.2,0.4,0.2,0.6c0,0.2-0.1,0.4-0.2,0.6l-1.2,1.3C26.4,24.9,26.2,25,26,25
		c-0.2,0-0.4-0.1-0.5-0.2L14.2,13.1c-0.1-0.2-0.2-0.4-0.2-0.6S14.1,12.1,14.2,11.9z"/>
</g>
<g>
	<path fill="#FFFFFF" d="M0.2,11.9L11.4,0.2C11.6,0.1,11.8,0,12,0c0.2,0,0.4,0.1,0.6,0.2l1.2,1.3C13.9,1.7,14,1.9,14,2.1
		c0,0.2-0.1,0.4-0.2,0.6l-9.4,9.8l9.4,9.8c0.1,0.1,0.2,0.4,0.2,0.6c0,0.2-0.1,0.4-0.2,0.6l-1.2,1.3C12.4,24.9,12.2,25,12,25
		c-0.2,0-0.4-0.1-0.5-0.2L0.2,13.1C0.1,12.9,0,12.7,0,12.5S0.1,12.1,0.2,11.9z"/>
</g>
</svg>
