<?xml version="1.0" encoding="utf-8"?>
<!-- Generator: Adobe Illustrator 18.1.1, SVG Export Plug-In . SVG Version: 6.00 Build 0)  -->
<svg version="1.1" id="Layer_1" xmlns="http://www.w3.org/2000/svg" xmlns:xlink="http://www.w3.org/1999/xlink" x="0px" y="0px"
	 width="28px" height="13.4px" viewBox="0 0 28 13.4" enable-background="new 0 0 28 13.4" xml:space="preserve">
<g>
	<g>
		<path fill="#4D4E4E" d="M8.8,0L8.3,5.2l5.3-1.5L14,7.2L9.2,7.6l3.2,4.2l-3.2,1.7L6.9,9.1L5,13.4l-3.3-1.7l3.1-4.2L0,7.2l0.6-3.5
			l5.2,1.5L5.1,0H8.8z"/>
	</g>
	<g>
		<path fill="#FFFFFF" d="M22.8,0l-0.6,5.2l5.3-1.5L28,7.2l-4.8,0.3l3.2,4.2l-3.2,1.7l-2.2-4.4L19,13.4l-3.3-1.7l3.1-4.2L14,7.2
			l0.6-3.5l5.2,1.5L19.1,0H22.8z"/>
	</g>
</g>
</svg>
