<?xml version="1.0" encoding="utf-8"?>
<!-- Generator: Adobe Illustrator 18.1.1, SVG Export Plug-In . SVG Version: 6.00 Build 0)  -->
<svg version="1.1" id="Layer_1" xmlns="http://www.w3.org/2000/svg" xmlns:xlink="http://www.w3.org/1999/xlink" x="0px" y="0px"
	 width="69.3px" height="64px" viewBox="0 0 69.3 64" enable-background="new 0 0 69.3 64" xml:space="preserve">
<g>
	<path fill="#FFFFFF" d="M69.3,20c0,7.9-9.6,16.7-22.6,17.3c-1.7,2.1-3.2,3.4-4,4c-2.2,2-2.8,4.1-2.8,6.7c0,2.7,1.3,5.3,5.3,5.3
		s8,2.7,8,6.7v2.7c0,0.8-0.6,1.3-1.3,1.3H17.3c-0.8,0-1.3-0.6-1.3-1.3V60c0-4,4-6.7,8-6.7s5.3-2.7,5.3-5.3c0-2.7-0.6-4.8-2.8-6.7
		c-0.8-0.6-2.3-1.8-4-4C9.6,36.7,0,27.9,0,20v-5.3c0-2.2,1.8-4,4-4h12v-4C16,3,19,0,22.7,0h24c3.7,0,6.7,3,6.7,6.7v4h12
		c2.2,0,4,1.8,4,4V20z M16,16H5.3v4c0,4.1,5.5,9.8,13.8,11.5C17.3,27.6,16,22.5,16,16z M64,16H53.3c0,6.5-1.3,11.6-3.1,15.5
		C58.5,29.8,64,24.1,64,20V16z"/>
</g>
</svg>
