<?xml version="1.0" encoding="utf-8"?>
<!-- Generator: Adobe Illustrator 18.1.1, SVG Export Plug-In . SVG Version: 6.00 Build 0)  -->
<svg version="1.1" id="Layer_1" xmlns="http://www.w3.org/2000/svg" xmlns:xlink="http://www.w3.org/1999/xlink" x="0px" y="0px"
	 width="138px" height="64px" viewBox="-923.8 929 138 64" enable-background="new -923.8 929 138 64" xml:space="preserve">
<g>
	<g>
		<path fill="#FFFFFF" d="M-854.9,949c0,7.9-9.5,16.7-22.5,17.3c-1.7,2.1-3.2,3.4-4,4c-2.2,2-2.8,4.1-2.8,6.7c0,2.7,1.3,5.3,5.3,5.3
			c4,0,8,2.7,8,6.7v2.7c0,0.8-0.6,1.3-1.3,1.3h-34.4c-0.8,0-1.3-0.6-1.3-1.3V989c0-4,4-6.7,8-6.7c4,0,5.3-2.7,5.3-5.3
			c0-2.7-0.6-4.8-2.8-6.7c-0.8-0.6-2.3-1.8-4-4c-12.8-0.6-22.4-9.4-22.4-17.3v-5.3c0-2.2,1.8-4,4-4h11.9v-4c0-3.7,3-6.7,6.7-6.7
			h23.9c3.7,0,6.7,3,6.7,6.7v4h11.9c2.2,0,4,1.8,4,4L-854.9,949L-854.9,949z M-907.9,945h-10.6v4c0,4.1,5.5,9.8,13.7,11.5
			C-906.6,956.6-907.9,951.5-907.9,945z M-860.2,945h-10.6c0,6.5-1.3,11.6-3.1,15.5c8.3-1.7,13.7-7.4,13.7-11.5V945z"/>
	</g>
	<g>
		<path fill="#FFB61E" d="M-785.9,949c0,7.9-9.5,16.7-22.5,17.3c-1.7,2.1-3.2,3.4-4,4c-2.2,2-2.8,4.1-2.8,6.7c0,2.7,1.3,5.3,5.3,5.3
			c4,0,8,2.7,8,6.7v2.7c0,0.8-0.6,1.3-1.3,1.3h-34.4c-0.8,0-1.3-0.6-1.3-1.3V989c0-4,4-6.7,8-6.7c4,0,5.3-2.7,5.3-5.3
			c0-2.7-0.6-4.8-2.8-6.7c-0.8-0.6-2.3-1.8-4-4c-12.8-0.6-22.4-9.4-22.4-17.3v-5.3c0-2.2,1.8-4,4-4h11.9v-4c0-3.7,3-6.7,6.7-6.7
			h23.9c3.7,0,6.7,3,6.7,6.7v4h11.9c2.2,0,4,1.8,4,4L-785.9,949L-785.9,949z M-838.9,945h-10.6v4c0,4.1,5.5,9.8,13.7,11.5
			C-837.6,956.6-838.9,951.5-838.9,945z M-791.2,945h-10.6c0,6.5-1.3,11.6-3.1,15.5c8.3-1.7,13.7-7.4,13.7-11.5V945z"/>
	</g>
</g>
</svg>
