<?xml version="1.0" encoding="utf-8"?>
<!-- Generator: Adobe Illustrator 18.1.1, SVG Export Plug-In . SVG Version: 6.00 Build 0)  -->
<svg version="1.1" id="Layer_1" xmlns="http://www.w3.org/2000/svg" xmlns:xlink="http://www.w3.org/1999/xlink" x="0px" y="0px"
	 width="44.3px" height="36px" viewBox="0 0 44.3 36" enable-background="new 0 0 44.3 36" xml:space="preserve">
<g>
	<path fill="#FFFFFF" d="M39.8,9c0,0.4,0,0.8,0,1.2c0,12-9.1,25.9-25.8,25.9C8.8,36,4,34.5,0,31.9C0.7,32,1.4,32,2.2,32
		c4.2,0,8.2-1.4,11.3-3.9c-4-0.1-7.3-2.7-8.5-6.3C5.5,21.9,6.1,22,6.7,22c0.8,0,1.6-0.1,2.4-0.3c-4.2-0.8-7.3-4.5-7.3-8.9
		c0,0,0-0.1,0-0.1c1.2,0.7,2.6,1.1,4.1,1.1c-2.5-1.6-4.1-4.4-4.1-7.6c0-1.7,0.5-3.2,1.2-4.6c4.5,5.5,11.2,9.1,18.7,9.5
		c-0.1-0.7-0.2-1.4-0.2-2.1c0-5,4.1-9.1,9.1-9.1c2.6,0,5,1.1,6.6,2.9c2.1-0.4,4-1.2,5.8-2.2c-0.7,2.1-2.1,3.9-4,5
		c1.8-0.2,3.6-0.7,5.2-1.4C43.1,6.1,41.5,7.7,39.8,9z"/>
</g>
</svg>
