<?xml version="1.0" encoding="utf-8"?>
<!-- Generator: Adobe Illustrator 18.1.1, SVG Export Plug-In . SVG Version: 6.00 Build 0)  -->
<svg version="1.1" id="Layer_1" xmlns="http://www.w3.org/2000/svg" xmlns:xlink="http://www.w3.org/1999/xlink" x="0px" y="0px"
	 width="138.1px" height="69px" viewBox="-894 934.7 138.1 69" enable-background="new -894 934.7 138.1 69" xml:space="preserve">
<g>
	<rect x="-894" y="934.7" fill="none" width="69" height="69"/>
	<path fill="#FFFFFF" d="M-831.6,956c0,0.6,0,1.2,0,1.8c0,17.8-13.4,38.3-37.9,38.3c-7.5,0-14.6-2.2-20.5-6c1.1,0.1,2.1,0.2,3.2,0.2
		c6.2,0,12-2.1,16.5-5.8c-5.9-0.1-10.8-4-12.5-9.3c0.8,0.1,1.7,0.2,2.5,0.2c1.2,0,2.4-0.2,3.5-0.5c-5.9-1.3-10.5-6.7-10.5-13.3
		c0,0,0-0.1,0-0.2c1.8,1,3.8,1.6,6,1.7c-3.5-2.4-5.9-6.5-5.9-11.2c0-2.5,0.7-4.8,1.8-6.8c6.6,8.2,16.5,13.6,27.5,14.1
		c-0.2-1-0.3-2-0.3-3.1c0-7.4,5.9-13.4,13.3-13.4c3.8,0,7.3,1.6,9.7,4.2c3-0.6,5.9-1.7,8.5-3.2c-1,3.1-3.1,5.8-5.9,7.4
		c2.7-0.3,5.3-1,7.7-2.1C-826.7,951.7-829,954.1-831.6,956z"/>
	<rect x="-825" y="934.7" fill="none" width="69" height="69"/>
	<path fill="#FDB51E" d="M-762.6,956c0,0.6,0,1.2,0,1.8c0,17.8-13.4,38.3-37.9,38.3c-7.5,0-14.6-2.2-20.5-6c1.1,0.1,2.1,0.2,3.2,0.2
		c6.2,0,12-2.1,16.5-5.8c-5.9-0.1-10.8-4-12.5-9.3c0.8,0.1,1.7,0.2,2.5,0.2c1.2,0,2.4-0.2,3.5-0.5c-5.9-1.3-10.5-6.7-10.5-13.3
		c0,0,0-0.1,0-0.2c1.8,1,3.8,1.6,6,1.7c-3.5-2.4-5.9-6.5-5.9-11.2c0-2.5,0.7-4.8,1.8-6.8c6.6,8.2,16.5,13.6,27.5,14.1
		c-0.2-1-0.3-2-0.3-3.1c0-7.4,5.9-13.4,13.3-13.4c3.8,0,7.3,1.6,9.7,4.2c3-0.6,5.9-1.7,8.5-3.2c-1,3.1-3.1,5.8-5.9,7.4
		c2.7-0.3,5.3-1,7.7-2.1C-757.7,951.7-760,954.1-762.6,956z"/>
</g>
</svg>
