<?xml version="1.0" encoding="utf-8"?>
<!-- Generator: Adobe Illustrator 18.1.1, SVG Export Plug-In . SVG Version: 6.00 Build 0)  -->
<svg version="1.1" id="Layer_1" xmlns="http://www.w3.org/2000/svg" xmlns:xlink="http://www.w3.org/1999/xlink" x="0px" y="0px"
	 width="130px" height="53.3px" viewBox="0 0 130 53.3" enable-background="new 0 0 130 53.3" xml:space="preserve">
<path fill="#FFFFFF" d="M58.3,13.3c0,0.6,0,1.2,0,1.8c0,17.8-13.4,38.3-37.9,38.3c-7.5,0-14.6-2.2-20.5-6c1.1,0.1,2.1,0.2,3.2,0.2
	c6.2,0,12-2.1,16.5-5.8c-5.9-0.1-10.8-4-12.5-9.3c0.8,0.1,1.7,0.2,2.5,0.2c1.2,0,2.4-0.2,3.5-0.5C7.2,30.9,2.6,25.5,2.6,18.9
	c0,0,0-0.1,0-0.2c1.8,1,3.8,1.6,6,1.7C5.1,18,2.7,13.9,2.7,9.2c0-2.5,0.7-4.8,1.8-6.8C11.1,10.6,21,16,32,16.5c-0.2-1-0.3-2-0.3-3.1
	C31.7,6,37.6,0,45,0c3.8,0,7.3,1.6,9.7,4.2c3-0.6,5.9-1.7,8.5-3.2c-1,3.1-3.1,5.8-5.9,7.4c2.7-0.3,5.3-1,7.7-2.1
	C63.2,9,60.9,11.4,58.3,13.3z"/>
<path fill="#FDB51E" d="M123.3,13.3c0,0.6,0,1.2,0,1.8c0,17.8-13.4,38.3-37.9,38.3c-7.5,0-14.6-2.2-20.5-6c1.1,0.1,2.1,0.2,3.2,0.2
	c6.2,0,12-2.1,16.5-5.8c-5.9-0.1-10.8-4-12.5-9.3c0.8,0.1,1.7,0.2,2.5,0.2c1.2,0,2.4-0.2,3.5-0.5c-6.1-1.2-10.7-6.7-10.7-13.2
	c0,0,0-0.1,0-0.2c1.8,1,3.8,1.6,6,1.7c-3.6-2.4-5.9-6.5-5.9-11.2c0-2.5,0.7-4.8,1.8-6.8C76.1,10.6,86,16,97,16.5
	c-0.2-1-0.3-2-0.3-3.1C96.7,6,102.6,0,110,0c3.8,0,7.3,1.6,9.7,4.2c3-0.6,5.9-1.7,8.5-3.2c-1,3.1-3.1,5.8-5.9,7.4
	c2.7-0.3,5.3-1,7.7-2.1C128.2,9,125.9,11.4,123.3,13.3z"/>
</svg>
