<?xml version="1.0" encoding="utf-8"?>
<!-- Generator: Adobe Illustrator 18.1.1, SVG Export Plug-In . SVG Version: 6.00 Build 0)  -->
<svg version="1.1" id="Layer_1" xmlns="http://www.w3.org/2000/svg" xmlns:xlink="http://www.w3.org/1999/xlink" x="0px" y="0px"
	 width="36px" height="29.5px" viewBox="-932.9 946.3 36 29.5" enable-background="new -932.9 946.3 36 29.5" xml:space="preserve">
<g>
	<path fill="#3FCFD5" d="M-900.5,953.7c0,0.3,0,0.7,0,1c0,9.8-7.4,21.1-21,21.1c-4.2-0.1-8.1-1.3-11.4-3.4c0.6,0.1,1.1,0.1,1.8,0.1
		c3.4,0,6.7-1.1,9.2-3.2c-3.3-0.1-5.9-2.2-6.9-5.1c0.4,0.1,0.9,0.2,1.4,0.2c0.7,0,1.3-0.1,2-0.2c-3.4-0.7-5.9-3.7-5.9-7.2v-0.1
		c1,0.6,2.1,0.9,3.3,0.9c-2-1.3-3.3-3.6-3.3-6.2c0-1.4,0.4-2.6,1-3.7c3.7,4.5,9.1,7.4,15.2,7.7c-0.1-0.6-0.2-1.1-0.2-1.7
		c0-4.1,3.3-7.4,7.4-7.4c2.1,0,4.1,0.9,5.4,2.4c1.7-0.3,3.3-1,4.7-1.8c-0.6,1.7-1.7,3.2-3.3,4.1c1.5-0.2,2.9-0.6,4.2-1.1
		C-897.8,951.3-899.1,952.6-900.5,953.7z"/>
</g>
</svg>
