<?xml version="1.0" encoding="utf-8"?>
<!-- Generator: Adobe Illustrator 18.1.1, SVG Export Plug-In . SVG Version: 6.00 Build 0)  -->
<svg version="1.1" id="Layer_1" xmlns="http://www.w3.org/2000/svg" xmlns:xlink="http://www.w3.org/1999/xlink" x="0px" y="0px"
	 width="138px" height="69px" viewBox="-895 933.1 138 69" enable-background="new -895 933.1 138 69" xml:space="preserve">
<g>
	<rect x="-895" y="933.1" fill="none" width="69" height="69"/>
	<path fill="#FFFFFF" d="M-859.6,995.3l-22.3-21.5c-0.2-0.2-8.1-7.4-8.1-16c0-10.5,6.4-16.7,17.1-16.7c6.2,0,12.1,4.9,14.9,7.7
		c2.8-2.8,8.7-7.7,14.9-7.7c10.7,0,17.1,6.2,17.1,16.7c0,8.6-7.9,15.8-8.2,16.1l-22.2,21.4c-0.4,0.4-1,0.6-1.6,0.6
		C-858.6,996-859.1,995.7-859.6,995.3z"/>
	<rect x="-826" y="933.1" fill="none" width="69" height="69"/>
	<path fill="#FFB61E" d="M-790.6,995.3l-22.3-21.5c-0.2-0.2-8.1-7.4-8.1-16c0-10.5,6.4-16.7,17.1-16.7c6.2,0,12.1,4.9,14.9,7.7
		c2.8-2.8,8.7-7.7,14.9-7.7c10.7,0,17.1,6.2,17.1,16.7c0,8.6-7.9,15.8-8.2,16.1l-22.2,21.4c-0.4,0.4-1,0.6-1.6,0.6
		C-789.6,996-790.1,995.7-790.6,995.3z"/>
</g>
</svg>
