<?xml version="1.0" encoding="utf-8"?>
<!-- Generator: Adobe Illustrator 18.1.1, SVG Export Plug-In . SVG Version: 6.00 Build 0)  -->
<svg version="1.1" id="Layer_1" xmlns="http://www.w3.org/2000/svg" xmlns:xlink="http://www.w3.org/1999/xlink" x="0px" y="0px"
	 width="138px" height="69px" viewBox="-895 933.1 138 69" enable-background="new -895 933.1 138 69" xml:space="preserve">
<g>
	<rect x="-895" y="933.1" fill="none" width="69" height="69"/>
	<g>
		<path fill="#FFFFFF" d="M-826,963.2c0,2.5-2,4.6-4.6,4.6v13.7c0,2.5-2.1,4.6-4.6,4.6c-6.4-5.3-16.6-12.5-29-13.6
			c-4.3,1.4-5.7,6.4-2.9,9.3c-2.5,4.1,0.7,7,4.5,10c-2.2,4.4-11.4,4.4-14.7,1.4c-2.1-6.5-5.1-12.9-2.6-20.9h-4.4
			c-3.1,0-5.7-2.6-5.7-5.7v-6.9c0-3.1,2.6-5.7,5.7-5.7h17.1c13.7,0,25.1-8,32-13.7c2.5,0,4.6,2.1,4.6,4.6v13.7
			C-828,958.6-826,960.6-826,963.2z M-835.1,946.1c-9.4,7.1-18.4,11.2-27.5,12.2v9.6c9.1,1,18.1,5,27.4,12.2v-34H-835.1z"/>
	</g>
	<rect x="-826" y="933.1" fill="none" width="69" height="69"/>
	<g>
		<path fill="#FDB51E" d="M-757,963.2c0,2.5-2,4.6-4.6,4.6v13.7c0,2.5-2.1,4.6-4.6,4.6c-6.4-5.3-16.6-12.5-29-13.6
			c-4.3,1.4-5.7,6.4-2.9,9.3c-2.5,4.1,0.7,7,4.5,10c-2.2,4.4-11.4,4.4-14.7,1.4c-2.1-6.5-5.1-12.9-2.6-20.9h-4.4
			c-3.1,0-5.7-2.6-5.7-5.7v-6.9c0-3.1,2.6-5.7,5.7-5.7h17.1c13.7,0,25.1-8,32-13.7c2.5,0,4.6,2.1,4.6,4.6v13.7
			C-759,958.6-757,960.6-757,963.2z M-766.1,946.1c-9.4,7.1-18.4,11.2-27.5,12.2v9.6c9.1,1,18.1,5,27.4,12.2v-34H-766.1z"/>
	</g>
</g>
</svg>
