<?xml version="1.0" encoding="utf-8"?>
<!-- Generator: Adobe Illustrator 18.1.1, SVG Export Plug-In . SVG Version: 6.00 Build 0)  -->
<svg version="1.1" id="Layer_1" xmlns="http://www.w3.org/2000/svg" xmlns:xlink="http://www.w3.org/1999/xlink" x="0px" y="0px"
	 width="138.1px" height="69px" viewBox="-890 924 138.1 69" enable-background="new -890 924 138.1 69" xml:space="preserve">
<g>
	<rect x="-889.9" y="924" fill="none" width="69" height="69"/>
	<rect x="-820.9" y="924" fill="none" width="69" height="69"/>
	<g>
		<path fill="#FFFFFF" d="M-821.1,946.5c0,7.9-9.5,16.7-22.5,17.3c-1.7,2.1-3.2,3.4-4,4c-2.2,2-2.8,4.1-2.8,6.7
			c0,2.7,1.3,5.3,5.3,5.3s8,2.7,8,6.7v2.7c0,0.8-0.6,1.3-1.3,1.3h-34.4c-0.8,0-1.3-0.6-1.3-1.3v-2.7c0-4,4-6.7,8-6.7
			s5.3-2.7,5.3-5.3c0-2.7-0.6-4.8-2.8-6.7c-0.8-0.6-2.3-1.8-4-4c-12.8-0.6-22.4-9.4-22.4-17.3v-5.3c0-2.2,1.8-4,4-4h11.9v-4
			c0-3.7,3-6.7,6.7-6.7h23.9c3.7,0,6.7,3,6.7,6.7v4h11.9c2.2,0,4,1.8,4,4L-821.1,946.5L-821.1,946.5z M-874,942.5h-10.6v4
			c0,4.1,5.5,9.8,13.7,11.5C-872.7,954.1-874,949-874,942.5z M-826.4,942.5H-837c0,6.5-1.3,11.6-3.1,15.5
			c8.3-1.7,13.7-7.4,13.7-11.5L-826.4,942.5L-826.4,942.5z"/>
	</g>
	<g>
		<path fill="#FFB61E" d="M-752.1,946.5c0,7.9-9.5,16.7-22.5,17.3c-1.7,2.1-3.2,3.4-4,4c-2.2,2-2.8,4.1-2.8,6.7
			c0,2.7,1.3,5.3,5.3,5.3s8,2.7,8,6.7v2.7c0,0.8-0.6,1.3-1.3,1.3h-34.4c-0.8,0-1.3-0.6-1.3-1.3v-2.7c0-4,4-6.7,8-6.7
			s5.3-2.7,5.3-5.3c0-2.7-0.6-4.8-2.8-6.7c-0.8-0.6-2.3-1.8-4-4c-12.8-0.6-22.4-9.4-22.4-17.3v-5.3c0-2.2,1.8-4,4-4h11.9v-4
			c0-3.7,3-6.7,6.7-6.7h23.9c3.7,0,6.7,3,6.7,6.7v4h11.9c2.2,0,4,1.8,4,4L-752.1,946.5L-752.1,946.5z M-805,942.5h-10.6v4
			c0,4.1,5.5,9.8,13.7,11.5C-803.7,954.1-805,949-805,942.5z M-757.4,942.5H-768c0,6.5-1.3,11.6-3.1,15.5
			c8.3-1.7,13.7-7.4,13.7-11.5L-757.4,942.5L-757.4,942.5z"/>
	</g>
</g>
</svg>
