<?xml version="1.0" encoding="utf-8"?>
<!-- Generator: Adobe Illustrator 18.1.1, SVG Export Plug-In . SVG Version: 6.00 Build 0)  -->
<svg version="1.1" id="Layer_1" xmlns="http://www.w3.org/2000/svg" xmlns:xlink="http://www.w3.org/1999/xlink" x="0px" y="0px"
	 width="138px" height="69px" viewBox="-904 929 138 69" enable-background="new -904 929 138 69" xml:space="preserve">
<g>
	<rect x="-904" y="929" fill="none" width="69" height="69"/>
	<g>
		<path fill="#FFFFFF" d="M-835,953.9v37.7c0,1.9-1.5,3.4-3.4,3.4h-48.2c-1.9,0-3.4-1.5-3.4-3.4v-57.2c0-1.9,1.5-3.4,3.4-3.4h28.6
			v19.4c0,1.9,1.5,3.4,3.4,3.4h19.6V953.9z M-848.7,959.6c0-0.6-0.5-1.1-1.1-1.1h-25.3c-0.6,0-1.1,0.5-1.1,1.1v2.3
			c0,0.6,0.5,1.1,1.1,1.1h25.2c0.6,0,1.1-0.5,1.1-1.1L-848.7,959.6L-848.7,959.6z M-848.7,968.7c0-0.6-0.5-1.1-1.1-1.1h-25.3
			c-0.6,0-1.1,0.5-1.1,1.1v2.3c0,0.6,0.5,1.1,1.1,1.1h25.2c0.6,0,1.1-0.5,1.1-1.1L-848.7,968.7L-848.7,968.7z M-848.7,977.9
			c0-0.6-0.5-1.1-1.1-1.1h-25.3c-0.6,0-1.1,0.5-1.1,1.1v2.3c0,0.6,0.5,1.1,1.1,1.1h25.2c0.6,0,1.1-0.5,1.1-1.1L-848.7,977.9
			L-848.7,977.9z M-836.4,949.3h-16.9v-16.9c0.5,0.3,0.9,0.6,1.3,1l14.6,14.6C-837.1,948.4-836.8,948.8-836.4,949.3z"/>
	</g>
	<rect x="-835" y="929" fill="none" width="69" height="69"/>
	<g>
		<path fill="#FFB61E" d="M-766,953.9v37.7c0,1.9-1.5,3.4-3.4,3.4h-48.2c-1.9,0-3.4-1.5-3.4-3.4v-57.2c0-1.9,1.5-3.4,3.4-3.4h28.6
			v19.4c0,1.9,1.5,3.4,3.4,3.4h19.6V953.9z M-779.7,959.6c0-0.6-0.5-1.1-1.1-1.1h-25.3c-0.6,0-1.1,0.5-1.1,1.1v2.3
			c0,0.6,0.5,1.1,1.1,1.1h25.2c0.6,0,1.1-0.5,1.1-1.1L-779.7,959.6L-779.7,959.6z M-779.7,968.7c0-0.6-0.5-1.1-1.1-1.1h-25.3
			c-0.6,0-1.1,0.5-1.1,1.1v2.3c0,0.6,0.5,1.1,1.1,1.1h25.2c0.6,0,1.1-0.5,1.1-1.1L-779.7,968.7L-779.7,968.7z M-779.7,977.9
			c0-0.6-0.5-1.1-1.1-1.1h-25.3c-0.6,0-1.1,0.5-1.1,1.1v2.3c0,0.6,0.5,1.1,1.1,1.1h25.2c0.6,0,1.1-0.5,1.1-1.1L-779.7,977.9
			L-779.7,977.9z M-767.4,949.3h-16.9v-16.9c0.5,0.3,0.9,0.6,1.3,1l14.6,14.6C-768.1,948.4-767.8,948.8-767.4,949.3z"/>
	</g>
</g>
</svg>
